<?xml version="1.0" encoding="UTF-8"?>
<!-- Generator: Adobe Illustrator 21.1.0, SVG Export Plug-In . SVG Version: 6.00 Build 0)  -->
<svg version="1.1" id="Layer_1" xmlns="http://www.w3.org/2000/svg" xmlns:xlink="http://www.w3.org/1999/xlink" x="0px" y="0px" viewBox="0 0 157 35" style="enable-background:new 0 0 157 35;" xml:space="preserve">
<style type="text/css">
	.st0{fill:#C0A880;}
</style>
<g>
	<g>
		<path class="st0" d="M70.3,30.9l-5.2-11.4c-0.1-0.1-0.1-0.2-0.3-0.2h-0.2c-0.2,0-0.2,0.1-0.3,0.2L59,30.9c-0.1,0.2,0,0.4,0.3,0.4    h1.5c0.3,0,0.4-0.2,0.5-0.3l0.8-1.8h5.1L68,31c0.1,0.2,0.2,0.3,0.5,0.3H70C70.3,31.3,70.4,31.1,70.3,30.9z M63,27.3l1.7-3.7h0.1    l1.7,3.7H63z"/>
		<path class="st0" d="M71.4,19.7c0-0.2,0.2-0.3,0.3-0.3h1.6c0.2,0,0.3,0.2,0.3,0.3v6.9c0,1.4,1,2.6,2.5,2.6s2.5-1.1,2.5-2.6v-7    c0-0.2,0.1-0.3,0.3-0.3h1.6c0.2,0,0.3,0.2,0.3,0.3v7.1c0,2.6-2.1,4.7-4.7,4.7c-2.7,0-4.7-2.1-4.7-4.7L71.4,19.7L71.4,19.7z"/>
		<path class="st0" d="M87.9,19.4h-4c-0.2,0-0.3,0.2-0.3,0.3V31c0,0.2,0.1,0.3,0.3,0.3h4c3.3,0,6-2.7,6-6    C93.9,22.1,91.2,19.4,87.9,19.4z M87.7,29.2h-1.9v-7.8h1.9c2.2,0,3.8,1.7,3.8,3.9C91.5,27.6,89.9,29.2,87.7,29.2z"/>
		<path class="st0" d="M96.1,19.7c0-0.2,0.2-0.3,0.3-0.3H98c0.2,0,0.3,0.2,0.3,0.3V31c0,0.2-0.2,0.3-0.3,0.3h-1.6    c-0.2,0-0.3-0.2-0.3-0.3V19.7z"/>
		<path class="st0" d="M106.5,19.3c-3.4,0-6.1,2.7-6.1,6.1s2.7,6.1,6.1,6.1s6.1-2.7,6.1-6.1S109.9,19.3,106.5,19.3z M106.5,29.3    c-2.1,0-3.9-1.7-3.9-3.9c0-2.1,1.7-3.9,3.9-3.9c2.1,0,3.9,1.8,3.9,3.9S108.6,29.3,106.5,29.3z"/>
		<path class="st0" d="M92.8,9l-2.7,4.2c-0.1,0.1-0.3,0.3-0.5,0.3h-1c-0.2,0-0.4-0.1-0.5-0.3L85.5,9v6.3c0,0.2-0.1,0.3-0.3,0.3h-1.6    c-0.2,0-0.3-0.2-0.3-0.3v-9V4c0-0.2,0.2-0.3,0.3-0.3h0.6h0.4c0.1,0,0.3,0.1,0.4,0.2l4.2,6.8h0.1l4.2-6.8c0.1-0.1,0.2-0.2,0.4-0.2    h0.4h0.6C94.8,3.7,95,3.9,95,4v2.3v8.9c0,0.2-0.2,0.3-0.3,0.3h-1.6c-0.2,0-0.3-0.2-0.3-0.3C92.8,15.2,92.8,9,92.8,9z"/>
		<path class="st0" d="M81.6,15.2L76.3,3.7c-0.1-0.1-0.1-0.2-0.3-0.2h-0.2c-0.2,0-0.2,0.1-0.3,0.2l-5.3,11.4c-0.1,0.2,0,0.4,0.3,0.4    H72c0.3,0,0.4-0.2,0.5-0.3l0.8-1.8h5.1l0.8,1.8c0.1,0.2,0.2,0.3,0.5,0.3h1.5C81.5,15.6,81.7,15.4,81.6,15.2z M74.2,11.5l1.7-3.7    H76l1.7,3.7H74.2z"/>
		<path class="st0" d="M103.8,9.6c0.8-0.4,1.9-1.4,1.9-2.7c0-1.8-1.6-3.1-3.6-3.1h-3.9c-0.2,0-0.3,0.2-0.3,0.3v11.2    c0,0.2,0.1,0.3,0.3,0.3h4.1c2.1,0,3.7-1.4,3.7-3.3C106,10.8,104.7,9.8,103.8,9.6z M100.1,5.7h1.8c0.9,0,1.5,0.6,1.5,1.4    s-0.6,1.5-1.5,1.5h-1.8V5.7z M102.1,13.6H100v-3h1.9c0.9,0,1.7,0.6,1.7,1.5C103.7,12.9,103,13.6,102.1,13.6z"/>
		<path class="st0" d="M114.5,10.8c1.5-0.6,2.5-1.9,2.5-3.4c0-2-1.7-3.7-3.7-3.7h-4.9c-0.2,0-0.3,0.2-0.3,0.3v11.2    c0,0.2,0.1,0.3,0.3,0.3h1.6c0.2,0,0.3-0.2,0.3-0.3v-4.3h1.9l2.3,4.5c0,0.1,0.1,0.2,0.3,0.2h1.8c0.3,0,0.4-0.3,0.3-0.5L114.5,10.8z     M113.1,9.1h-2.8V5.7h2.8c0.9,0,1.7,0.7,1.7,1.6C114.8,8.3,114,9.1,113.1,9.1z"/>
		<path class="st0" d="M119.3,4c0-0.2,0.2-0.3,0.3-0.3h1.6c0.2,0,0.3,0.2,0.3,0.3v11.2c0,0.2-0.2,0.3-0.3,0.3h-1.6    c-0.2,0-0.3-0.2-0.3-0.3V4z"/>
		<path class="st0" d="M128.7,3.7h-4c-0.2,0-0.3,0.2-0.3,0.3v11.2c0,0.2,0.1,0.3,0.3,0.3h4c3.3,0,6-2.7,6-6    C134.6,6.4,132,3.7,128.7,3.7z M128.5,13.5h-1.9V5.8h1.9c2.2,0,3.8,1.7,3.8,3.9S130.7,13.5,128.5,13.5z"/>
		<path class="st0" d="M148.8,4c0-0.2,0.1-0.3,0.3-0.3h6.9c0.2,0,0.3,0.2,0.3,0.3v1.4c0,0.2-0.1,0.3-0.3,0.3h-5v2.8h4.2    c0.2,0,0.3,0.2,0.3,0.3v1.4c0,0.2-0.2,0.3-0.3,0.3H151v3h5c0.2,0,0.3,0.2,0.3,0.3v1.4c0,0.2-0.1,0.3-0.3,0.3h-6.9    c-0.2,0-0.3-0.2-0.3-0.3V4z"/>
		<path class="st0" d="M69.2,13.8L69.2,13.8l-0.1-0.2l0,0L68.9,13l-0.3-0.8c-0.1-0.2-0.3-0.2-0.4-0.1c0,0-0.2,0.2-0.5,0.5l0,0    c-0.1,0.1-0.2,0.1-0.3,0.2c-0.1,0-0.1,0.1-0.2,0.1c-0.6,0.3-1.2,0.5-2,0.5c-2.2,0-3.8-1.8-3.8-3.9s1.6-4,3.8-4c0.2,0,0.4,0,0.6,0    l0,0c0.7,0.1,1.4,0.4,1.9,0.9L68,6.7C68.2,7,68.4,7,68.5,6.8l0.6-1.4c0.1-0.2,0-0.5-0.2-0.6l-0.2-0.1l0,0c0,0-0.1,0-0.1-0.1    l-0.2-0.1l0,0c-0.9-0.6-1.9-0.9-3.2-0.9c-3.4,0-6.1,2.7-6.1,6.1s2.7,6.1,6.1,6.1c1.3,0,2.6-0.4,3.7-1.2c0.1-0.1,0.2-0.2,0.3-0.3    C69.3,14.1,69.3,14,69.2,13.8z"/>
		<path class="st0" d="M146.1,9.7h-1.9h-0.1h-1.3c-0.2,0-0.3,0.1-0.3,0.3v1.3c0,0.2,0.1,0.3,0.3,0.3h1.3l0,0v0.2v1.3    c-0.3,0.1-1.1,0.4-2,0.4c-2.1,0-3.8-1.8-3.8-3.9s1.7-3.9,3.8-3.9c0.6,0,1.3,0.2,1.8,0.5c0.1,0,0.1,0.1,0.2,0.1    c0.1,0.1,0.2,0.2,0.4,0.3c0,0,0,0,0.1,0c0.2,0.2,0.2,0.2,0.2,0.2c0.1,0.2,0.3,0.1,0.4-0.1l0.6-1.4c0.1-0.2,0-0.5-0.2-0.6l-0.1-0.1    c-0.3-0.2-0.6-0.4-1-0.6h-0.1c0,0,0,0-0.1,0c-0.8-0.3-1.6-0.5-2.4-0.5c-3.4,0-6.1,2.7-6.1,6.1s2.7,6.1,6.1,6.1    c2.5,0,4.2-1.1,4.2-1.1c0.1-0.1,0.1-0.1,0.1-0.3v-2.5v-0.3V10C146.4,9.9,146.3,9.7,146.1,9.7z"/>
	</g>
	<g>
		<path class="st0" d="M34.6,0C25,0,17.1,7.8,17.1,17.5S25,35,34.6,35s17.5-7.8,17.5-17.5S44.3,0,34.6,0z M34.6,32.3    c-3.8,0-6.9-3.1-6.9-6.9s3.1-6.9,6.9-6.9s6.9,3.1,6.9,6.9S38.4,32.3,34.6,32.3z"/>
		<path class="st0" d="M18.3,21.8c0-5.3-4.3-9.5-9.5-9.5c-0.2,0-0.5,0-0.7,0l1.5-3.8h2.2h2.9c0.8-1.8,1.8-3.4,3.1-4.9l0,0h-6.2H8.5    H6.6l-3.1,7.7l-2.9,7.2h4.1c0.9-1,2.2-1.6,3.7-1.6c1.1,0,2.1,0.3,2.9,0.9c0,0,0,0,0.1,0.1c0.2,0.1,0.3,0.3,0.5,0.4    c0.1,0.1,0.2,0.2,0.3,0.3c0.1,0.1,0.2,0.2,0.2,0.3c0.1,0.1,0.2,0.3,0.3,0.4c0.1,0.2,0.2,0.4,0.3,0.5c0,0,0,0.1,0.1,0.1    c0.3,0.6,0.4,1.3,0.4,2c0,2.8-2.3,5-5,5c-0.2,0-0.5,0-0.7-0.1c-0.1,0-0.2,0-0.3-0.1c-0.1,0-0.2,0-0.3-0.1c-1.2-0.3-2.4-1-3.2-1.8    c-0.5,1.4-1.1,2.7-1.6,4.1c1.7,1.5,3.9,2.3,6.4,2.3c0.1,0,0.1,0,0.2,0l0,0c3.5,0,6.6-1.9,8.2-4.7c0-0.1,0.1-0.2,0.2-0.3v-0.1    C17.9,24.9,18.3,23.4,18.3,21.8C18.3,21.9,18.3,21.8,18.3,21.8L18.3,21.8z"/>
	</g>
</g>
</svg>